HIERARCHY
ROOT Hips
{
    OFFSET 0.000000 0.000000 0.000000
    CHANNELS 6 Xposition Yposition Zposition Zrotation Xrotation Yrotation
    JOINT Spine
    {
        OFFSET 0.000002 7.164412 0.000002
        CHANNELS 3 Zrotation Xrotation Yrotation
        JOINT Spine1
        {
            OFFSET -0.000001 20.126801 -0.000002
            CHANNELS 3 Zrotation Xrotation Yrotation
            JOINT Neck
            {
                OFFSET 0.000000 21.094069 0.000000
                CHANNELS 3 Zrotation Xrotation Yrotation
                JOINT Head
                {
                    OFFSET -0.000001 12.838277 1.776080
                    CHANNELS 3 Zrotation Xrotation Yrotation
                    End Site
                    {
                        OFFSET 0.000000 17.760757 0.000000
                    }
                }
            }
            JOINT LeftShoulder
            {
                OFFSET 3.550527 15.465700 -0.908803
                CHANNELS 3 Zrotation Xrotation Yrotation
                JOINT LeftArm
                {
                    OFFSET 12.513296 -0.000006 -0.000002
                    CHANNELS 3 Zrotation Xrotation Yrotation
                    JOINT LeftForeArm
                    {
                        OFFSET 24.225996 -0.000003 0.000001
                        CHANNELS 3 Zrotation Xrotation Yrotation
                        JOINT LeftHand
                        {
                            OFFSET 20.711399 -0.000005 -0.000004
                            CHANNELS 3 Zrotation Xrotation Yrotation
                            JOINT LeftHandThumb1
                            {
                                OFFSET 2.121969 -2.411331 3.375859
                                CHANNELS 3 Zrotation Xrotation Yrotation
                                JOINT LeftHandThumb2
                                {
                                    OFFSET 2.803208 0.000003 0.000001
                                    CHANNELS 3 Zrotation Xrotation Yrotation
                                    JOINT LeftHandThumb3
                                    {
                                        OFFSET 2.395929 0.000004 -0.000003
                                        CHANNELS 3 Zrotation Xrotation Yrotation
                                        End Site
                                        {
                                            OFFSET 2.127676 0.000000 0.000000
                                        }
                                    }
                                }
                            }
                            JOINT LeftHandIndex1
                            {
                                OFFSET 8.680775 0.000005 3.375860
                                CHANNELS 3 Zrotation Xrotation Yrotation
                                JOINT LeftHandIndex2
                                {
                                    OFFSET 4.218178 -0.000000 -0.000000
                                    CHANNELS 3 Zrotation Xrotation Yrotation
                                    JOINT LeftHandIndex3
                                    {
                                        OFFSET 2.109086 -0.000004 0.000002
                                        CHANNELS 3 Zrotation Xrotation Yrotation
                                        End Site
                                        {
                                            OFFSET 1.872952 0.000000 0.000000
                                        }
                                    }
                                }
                            }
                            JOINT LeftHandMiddle1
                            {
                                OFFSET 8.680778 -0.000002 1.118860
                                CHANNELS 3 Zrotation Xrotation Yrotation
                                JOINT LeftHandMiddle2
                                {
                                    OFFSET 4.640003 -0.000004 -0.000001
                                    CHANNELS 3 Zrotation Xrotation Yrotation
                                    JOINT LeftHandMiddle3
                                    {
                                        OFFSET 2.530911 0.000002 -0.000001
                                        CHANNELS 3 Zrotation Xrotation Yrotation
                                        End Site
                                        {
                                            OFFSET 2.247544 0.000000 0.000000
                                        }
                                    }
                                }
                            }
                            JOINT LeftHandRing1
                            {
                                OFFSET 8.198517 0.000004 -1.118860
                                CHANNELS 3 Zrotation Xrotation Yrotation
                                JOINT LeftHandRing2
                                {
                                    OFFSET 4.218183 -0.000002 -0.000002
                                    CHANNELS 3 Zrotation Xrotation Yrotation
                                    JOINT LeftHandRing3
                                    {
                                        OFFSET 2.109094 0.000005 -0.000000
                                        CHANNELS 3 Zrotation Xrotation Yrotation
                                        End Site
                                        {
                                            OFFSET 1.872952 0.000000 0.000000
                                        }
                                    }
                                }
                            }
                            JOINT LeftHandPinky1
                            {
                                OFFSET 7.716254 0.000002 -3.375863
                                CHANNELS 3 Zrotation Xrotation Yrotation
                                JOINT LeftHandPinky2
                                {
                                    OFFSET 3.374536 0.000002 0.000001
                                    CHANNELS 3 Zrotation Xrotation Yrotation
                                    JOINT LeftHandPinky3
                                    {
                                        OFFSET 1.687274 -0.000002 -0.000004
                                        CHANNELS 3 Zrotation Xrotation Yrotation
                                        End Site
                                        {
                                            OFFSET 1.498360 0.000000 0.000000
                                        }
                                    }
                                }
                            }
                        }
                    }
                }
            }
            JOINT RightShoulder
            {
                OFFSET -3.550529 15.465699 -0.908801
                CHANNELS 3 Zrotation Xrotation Yrotation
                JOINT RightArm
                {
                    OFFSET -12.513299 -0.000001 -0.000000
                    CHANNELS 3 Zrotation Xrotation Yrotation
                    JOINT RightForeArm
                    {
                        OFFSET -24.226000 -0.000003 -0.000001
                        CHANNELS 3 Zrotation Xrotation Yrotation
                        JOINT RightHand
                        {
                            OFFSET -20.711397 -0.000003 -0.000002
                            CHANNELS 3 Zrotation Xrotation Yrotation
                            JOINT RightHandThumb1
                            {
                                OFFSET -2.121970 -2.411331 3.375859
                                CHANNELS 3 Zrotation Xrotation Yrotation
                                JOINT RightHandThumb2
                                {
                                    OFFSET -2.803209 -0.000004 0.000004
                                    CHANNELS 3 Zrotation Xrotation Yrotation
                                    JOINT RightHandThumb3
                                    {
                                        OFFSET -2.395928 0.000004 -0.000003
                                        CHANNELS 3 Zrotation Xrotation Yrotation
                                        End Site
                                        {
                                            OFFSET -2.127676 0.000000 0.000000
                                        }
                                    }
                                }
                            }
                            JOINT RightHandIndex1
                            {
                                OFFSET -8.680779 0.000001 3.375859
                                CHANNELS 3 Zrotation Xrotation Yrotation
                                JOINT RightHandIndex2
                                {
                                    OFFSET -4.218179 0.000003 -0.000001
                                    CHANNELS 3 Zrotation Xrotation Yrotation
                                    JOINT RightHandIndex3
                                    {
                                        OFFSET -2.109090 -0.000002 0.000000
                                        CHANNELS 3 Zrotation Xrotation Yrotation
                                        End Site
                                        {
                                            OFFSET -1.872952 0.000000 0.000000
                                        }
                                    }
                                }
                            }
                            JOINT RightHandMiddle1
                            {
                                OFFSET -8.680779 -0.000002 1.118859
                                CHANNELS 3 Zrotation Xrotation Yrotation
                                JOINT RightHandMiddle2
                                {
                                    OFFSET -4.639998 0.000003 -0.000001
                                    CHANNELS 3 Zrotation Xrotation Yrotation
                                    JOINT RightHandMiddle3
                                    {
                                        OFFSET -2.530910 -0.000000 -0.000000
                                        CHANNELS 3 Zrotation Xrotation Yrotation
                                        End Site
                                        {
                                            OFFSET -2.247544 0.000000 0.000000
                                        }
                                    }
                                }
                            }
                            JOINT RightHandRing1
                            {
                                OFFSET -8.198519 -0.000004 -1.118859
                                CHANNELS 3 Zrotation Xrotation Yrotation
                                JOINT RightHandRing2
                                {
                                    OFFSET -4.218180 -0.000005 0.000000
                                    CHANNELS 3 Zrotation Xrotation Yrotation
                                    JOINT RightHandRing3
                                    {
                                        OFFSET -2.109090 0.000002 0.000002
                                        CHANNELS 3 Zrotation Xrotation Yrotation
                                        End Site
                                        {
                                            OFFSET -1.872952 0.000000 0.000000
                                        }
                                    }
                                }
                            }
                            JOINT RightHandPinky1
                            {
                                OFFSET -7.716249 0.000004 -3.375858
                                CHANNELS 3 Zrotation Xrotation Yrotation
                                JOINT RightHandPinky2
                                {
                                    OFFSET -3.374539 0.000003 -0.000000
                                    CHANNELS 3 Zrotation Xrotation Yrotation
                                    JOINT RightHandPinky3
                                    {
                                        OFFSET -1.687270 -0.000004 -0.000001
                                        CHANNELS 3 Zrotation Xrotation Yrotation
                                        End Site
                                        {
                                            OFFSET -1.498360 0.000000 0.000000
                                        }
                                    }
                                }
                            }
                        }
                    }
                }
            }
        }
    }
    JOINT LeftUpLeg
    {
        OFFSET 8.880377 0.000003 0.000001
        CHANNELS 3 Zrotation Xrotation Yrotation
        JOINT LeftLeg
        {
            OFFSET -0.000000 -40.387413 0.000001
            CHANNELS 3 Zrotation Xrotation Yrotation
            JOINT LeftFoot
            {
                OFFSET -0.000000 -36.911304 0.000000
                CHANNELS 3 Zrotation Xrotation Yrotation
                JOINT LeftToeBase
                {
                    OFFSET 0.000003 -5.772240 13.320597
                    CHANNELS 3 Zrotation Xrotation Yrotation
                    End Site
                    {
                        OFFSET 0.000000 0.000000 3.552151
                    }
                }
            }
        }
    }
    JOINT RightUpLeg
    {
        OFFSET -8.880380 -0.000003 -0.000001
        CHANNELS 3 Zrotation Xrotation Yrotation
        JOINT RightLeg
        {
            OFFSET 0.000001 -40.387405 0.000000
            CHANNELS 3 Zrotation Xrotation Yrotation
            JOINT RightFoot
            {
                OFFSET -0.000001 -36.911304 -0.000001
                CHANNELS 3 Zrotation Xrotation Yrotation
                JOINT RightToeBase
                {
                    OFFSET 0.000000 -5.772241 13.320600
                    CHANNELS 3 Zrotation Xrotation Yrotation
                    End Site
                    {
                        OFFSET 0.000000 0.000000 3.552151
                    }
                }
            }
        }
    }
}
MOTION
Frames: 5
Frame Time: 0.013889
44.841915    79.223450    20.804192    -3.689215    -1.212471    -33.233227    2.306826    -10.771886    12.163216    -4.736533    14.156439    12.740822    -8.297752    -6.865839    -15.138522    5.055119    1.643462    -14.342380    -3.279159    0.124879    1.346491    -52.628891    -10.380932    -1.230003    -4.939715    -11.590303    -23.276466    23.553051    7.968272    -1.374880    28.443895    36.475235    -43.458839    -18.052555    -2.641572    23.175659    -0.000000    0.000000    -0.000000    -4.067978    17.957521    -3.987596    -3.869488    0.000001    0.000001    -3.869502    -0.000002    -0.000004    -1.352555    8.997534    -2.410288    -1.335891    0.000003    0.000000    -1.335897    0.000000    -0.000003    -0.069970    -8.999998    -3.350479    -0.069098    -0.000001    -0.000003    -0.069097    -0.000001    -0.000001    1.259304    -17.995892    -6.289952    1.197701    0.000001    -0.000000    1.197690    0.000000    0.000002    2.554052    -0.202422    11.523384    40.014156    9.863403    38.757965    3.519637    -12.986455    15.307114    -32.531116    16.879993    -9.581981    -34.366272    32.280594    42.058655    14.317602    -1.038236    -23.295628    -0.000000    0.000000    -0.000000    0.892072    17.997913    -0.410258    0.848418    -0.000000    0.000005    0.848418    0.000001    0.000005    -1.251651    8.997891    0.128481    -1.236245    0.000001    -0.000001    -1.236246    0.000001    -0.000001    -2.306951    -8.992826    3.394706    -2.278575    -0.000006    0.000008    -2.278575    0.000002    0.000001    -3.491399    -17.968695    6.432701    -3.320906    -0.000007    0.000005    -3.320909    0.000007    -0.000004    -0.337641    -34.742275    4.338333    0.000002    11.990491    0.000003    -9.061977    25.204556    9.912802    -0.000000    6.207397    -0.000002    5.244272    -6.738044    -32.028606    -0.000001    37.366890    -0.000001    -2.906080    -21.173796    -3.276057    -0.000001    -3.516983    -0.000001    
44.562592    78.863884    21.036247    -3.789044    -1.325616    -33.441299    2.310796    -10.707536    12.253727    -4.729909    14.233285    12.829635    -8.386060    -6.744704    -15.171525    5.066937    1.600429    -14.372880    -3.238309    0.171460    1.428408    -53.821800    -9.609476    -0.808602    -4.726513    -11.580398    -22.385492    24.478123    7.169544    -1.327021    28.256027    36.617973    -43.346661    -17.933075    -2.590476    23.181108    -0.000000    0.000000    -0.000000    -3.758474    17.963730    -4.224531    -3.575018    -0.000000    0.000002    -3.575022    0.000000    -0.000006    -1.155696    8.998207    -2.511826    -1.141467    -0.000000    0.000002    -1.141474    0.000000    -0.000001    0.076245    -8.999996    -3.385475    0.075311    -0.000001    0.000000    0.075296    0.000002    -0.000000    1.358551    -17.995222    -6.375029    1.292074    -0.000003    0.000002    1.292080    0.000009    0.000001    2.983739    -0.059060    11.681491    40.399506    10.945700    39.082260    3.621954    -13.314880    15.368423    -33.137180    16.833315    -8.778023    -34.088837    32.484852    41.957905    14.311406    -1.035566    -23.295748    -0.000000    0.000000    -0.000000    0.012918    17.999954    -0.337541    0.012283    -0.000001    -0.000009    0.012285    0.000000    -0.000003    -1.979156    8.994722    0.142774    -1.954810    -0.000000    -0.000001    -1.954810    0.000001    -0.000007    -2.974919    -8.988068    3.463767    -2.938355    -0.000003    0.000008    -2.938357    -0.000001    0.000001    -4.123054    -17.956369    6.584801    -3.921903    0.000007    -0.000004    -3.921904    -0.000004    0.000003    -0.841639    -34.072159    4.306627    0.000001    10.576952    0.000001    -9.516074    24.665545    11.151237    0.000003    6.105870    0.000004    5.010093    -6.853543    -32.081470    -0.000002    38.778564    0.000002    -2.793755    -22.060835    -3.132975    0.000001    -3.747376    -0.000008    
44.348587    78.603836    21.216621    -3.880988    -1.412923    -33.587471    2.313084    -10.664386    12.313065    -4.731667    14.303187    12.889881    -8.434995    -6.643140    -15.194590    5.078070    1.584018    -14.399333    -3.218856    0.250705    1.460214    -54.714294    -9.053110    -0.496832    -4.640244    -11.705841    -21.803871    25.193438    6.503269    -1.103032    28.045071    36.778534    -43.291744    -17.886772    -2.570676    23.183207    -0.000000    0.000000    -0.000000    -3.568044    17.967310    -4.383657    -3.393834    -0.000000    0.000001    -3.393843    -0.000001    -0.000003    -1.015069    8.998617    -2.584015    -1.002582    -0.000002    -0.000003    -1.002569    0.000002    0.000004    0.195458    -8.999951    -3.396198    0.193054    0.000000    0.000002    0.193047    0.000001    0.000001    1.460120    -17.994486    -6.402395    1.388680    -0.000004    0.000001    1.388673    -0.000006    -0.000004    3.279151    0.088245    11.777881    40.694912    11.795532    39.292107    3.706923    -13.619043    15.384303    -33.712986    16.926142    -8.255837    -33.792915    32.706165    41.815575    14.348889    -1.051701    -23.295078    -0.000000    0.000000    -0.000000    -0.608837    17.999001    -0.334674    -0.579039    0.000000    -0.000003    -0.579039    -0.000000    -0.000007    -2.522602    8.991425    0.133093    -2.491584    0.000001    0.000003    -2.491585    0.000001    -0.000004    -3.490731    -8.983577    3.467684    -3.447856    -0.000001    0.000002    -3.447858    -0.000001    -0.000005    -4.629814    -17.944992    6.597575    -4.404130    -0.000001    0.000001    -4.404129    -0.000007    0.000008    -1.184954    -33.598785    4.293187    0.000003    9.765774    0.000006    -9.698226    24.182032    12.076052    0.000001    5.996336    0.000001    4.889453    -6.899095    -32.081276    0.000007    39.748013    -0.000009    -2.794860    -22.674761    -3.121127    0.000001    -3.891410    -0.000017    
44.125965    78.335945    21.393795    -3.981566    -1.478869    -33.716274    2.315571    -10.618415    12.377030    -4.725143    14.356627    12.952065    -8.498149    -6.559728    -15.227229    5.085744    1.572870    -14.431746    -3.190366    0.356280    1.472426    -55.603447    -8.465233    -0.203653    -4.615304    -11.905421    -21.371140    25.856146    5.808896    -0.699440    27.915524    36.877598    -43.285061    -17.800770    -2.533873    23.187035    -0.000000    0.000000    -0.000000    -3.454735    17.969353    -4.491830    -3.286031    -0.000000    0.000002    -3.286035    0.000000    -0.000002    -0.922159    8.998858    -2.635155    -0.910804    0.000002    0.000003    -0.910818    -0.000002    -0.000000    0.280260    -8.999895    -3.402475    0.276798    -0.000003    0.000000    0.276798    -0.000003    -0.000001    1.539752    -17.993868    -6.416879    1.464417    0.000005    0.000004    1.464411    -0.000005    -0.000002    3.537858    0.254981    11.864543    40.982548    12.655615    39.467197    3.814566    -13.974864    15.434435    -34.189381    17.017761    -7.833382    -33.539246    32.893787    41.700066    14.371688    -1.061515    -23.294643    -0.000000    0.000000    -0.000000    -1.204310    17.996237    -0.336955    -1.145385    -0.000001    -0.000001    -1.145384    0.000000    -0.000001    -3.040294    8.987546    0.120849    -3.002931    -0.000000    -0.000003    -3.002931    0.000000    -0.000003    -3.980558    -8.978647    3.445867    -3.931705    0.000002    -0.000002    -3.931705    -0.000001    0.000001    -5.109322    -17.933020    6.559183    -4.860477    -0.000003    0.000004    -4.860477    0.000003    -0.000003    -1.499697    -33.157497    4.354313    -0.000000    9.082008    -0.000001    -9.746245    23.677162    12.942951    0.000000    5.882879    0.000005    4.829681    -6.931252    -32.063599    0.000009    40.638435    -0.000015    -2.884963    -23.308537    -3.201717    0.000001    -4.029767    0.000002    
43.827362    78.001823    21.623791    -4.122636    -1.533105    -33.890938    2.319339    -10.561432    12.460629    -4.732457    14.434466    13.037402    -8.505971    -6.491899    -15.268025    5.126573    1.591069    -14.482602    -3.167118    0.538424    1.466984    -56.740578    -7.648274    0.186753    -4.639926    -12.279215    -20.887398    26.370308    4.629859    -0.388430    27.894993    36.893799    -43.307232    -17.611261    -2.452762    23.195284    -0.000000    0.000000    -0.000000    -3.281063    17.972349    -4.500939    -3.120804    -0.000001    0.000001    -3.120801    0.000001    0.000001    -0.850471    8.999032    -2.624131    -0.840008    -0.000000    -0.000000    -0.840005    -0.000000    0.000000    0.304139    -8.999878    -3.426986    0.300400    0.000003    -0.000000    0.300379    -0.000006    -0.000001    1.514889    -17.994070    -6.481047    1.440790    -0.000001    0.000000    1.440793    0.000003    -0.000000    3.852898    0.491727    11.972123    41.345592    13.817289    39.655479    3.981669    -14.457584    15.578328    -34.450832    17.029678    -7.343765    -33.328289    33.042946    41.655582    14.353672    -1.053760    -23.294970    -0.000000    0.000000    -0.000000    -1.939936    17.990305    -0.335229    -1.845059    0.000000    0.000001    -1.845058    -0.000001    -0.000009    -3.677259    8.981777    0.107563    -3.632109    0.000001    0.000001    -3.632109    -0.000000    0.000001    -4.581809    -8.971712    3.407400    -4.525634    -0.000002    0.000001    -4.525635    0.000004    -0.000002    -5.696251    -17.916767    6.489204    -5.419160    0.000006    -0.000007    -5.419159    -0.000006    0.000003    -1.853014    -32.666569    4.513541    -0.000006    8.468354    -0.000005    -9.614492    23.082291    13.786166    0.000002    5.755551    0.000003    4.853004    -6.957461    -31.896479    -0.000003    41.687046    -0.000001    -3.056592    -24.124065    -3.409914    -0.000000    -4.191435    0.000005    
